<svg xmlns="http://www.w3.org/2000/svg" width="24" height="24" viewBox="0 0 24 24">
  <path fill="none" d="M0 0h24v24H0z" />
  <path fill="#ffcf5a" d="M12 16.5a1.5 1.5 0 1 1 0 3a1.5 1.5 0 0 1 0-3m0-4a5.5 5.5 0 0 1 3.889 1.61a1.5 1.5 0 0 1-2.007 2.225l-.114-.103A2.5 2.5 0 0 0 12 15.5c-.622 0-1.189.225-1.627.601l-.14.131a1.5 1.5 0 0 1-2.122-2.121A5.5 5.5 0 0 1 12 12.5m0-4c2.623 0 5 1.065 6.717 2.783a1.5 1.5 0 1 1-2.12 2.12A6.48 6.48 0 0 0 12 11.5a6.48 6.48 0 0 0-4.596 1.904a1.5 1.5 0 1 1-2.122-2.121A9.48 9.48 0 0 1 12 8.5m0-4c3.727 0 7.105 1.513 9.546 3.954a1.5 1.5 0 1 1-2.122 2.121A10.46 10.46 0 0 0 12 7.5c-2.9 0-5.523 1.174-7.425 3.075a1.5 1.5 0 1 1-2.121-2.12A13.46 13.46 0 0 1 12 4.5" />
</svg>
