<svg xmlns="http://www.w3.org/2000/svg" width="750" height="1050" viewBox="0 0 750 1050">
  <defs>
    <linearGradient id="edge" x1="0" y1="0" x2="1" y2="1"><stop stop-color="#fff8df"/><stop offset=".45" stop-color="#d7a94c"/><stop offset="1" stop-color="#6b4718"/></linearGradient>
    <linearGradient id="bg" x1="0" y1="0" x2="1" y2="1"><stop stop-color="#fff6df"/><stop offset=".5" stop-color="#f4e4bd"/><stop offset="1" stop-color="#d8c28d"/></linearGradient>
    <radialGradient id="glow" cx="50%" cy="45%" r="62%"><stop stop-color="#ffffff" stop-opacity=".42"/><stop offset=".6" stop-color="#0b3d2e" stop-opacity=".08"/><stop offset="1" stop-color="#000" stop-opacity=".16"/></radialGradient>
    <pattern id="dots" width="38" height="38" patternUnits="userSpaceOnUse"><circle cx="10" cy="10" r="1.3" fill="#0b3d2e" opacity=".08"/><circle cx="27" cy="25" r="1" fill="#7a541f" opacity=".1"/></pattern>
    <g id="corner"><path d="M0 0h140M0 0v140" fill="none" stroke="#0b3d2e" stroke-width="6" stroke-linecap="round"/><path d="M26 26h88M26 26v88" fill="none" stroke="#d7a94c" stroke-width="2.5" stroke-linecap="round"/><circle cx="26" cy="26" r="7" fill="#d7a94c"/></g>
  </defs>
  <rect width="750" height="1050" rx="58" fill="#efe1b8"/><rect x="18" y="18" width="714" height="1014" rx="52" fill="url(#edge)"/><rect x="32" y="32" width="686" height="986" rx="44" fill="#0b3d2e"/><rect x="50" y="50" width="650" height="950" rx="36" fill="url(#bg)"/><rect x="50" y="50" width="650" height="950" rx="36" fill="url(#dots)"/><rect x="50" y="50" width="650" height="950" rx="36" fill="url(#glow)"/>
  <rect x="82" y="82" width="586" height="886" rx="27" fill="none" stroke="#0b3d2e" stroke-width="7"/><rect x="106" y="106" width="538" height="838" rx="20" fill="none" stroke="#d7a94c" stroke-opacity=".8" stroke-width="2.5"/><rect x="132" y="132" width="486" height="786" rx="17" fill="none" stroke="#0b3d2e" stroke-opacity=".25" stroke-width="2" stroke-dasharray="15 14"/>
  <use href="#corner" x="110" y="110"/><use href="#corner" x="640" y="110" transform="rotate(90 640 110)"/><use href="#corner" x="640" y="940" transform="rotate(180 640 940)"/><use href="#corner" x="110" y="940" transform="rotate(270 110 940)"/>
  <g transform="translate(375 525)"><circle r="190" fill="#0b3d2e" opacity=".12"/><circle r="176" fill="none" stroke="#0b3d2e" stroke-width="5"/><path d="M0-178 38-38 178 0 38 38 0 178-38 38-178 0-38-38Z" fill="#f9edd0" stroke="#0b3d2e" stroke-width="7"/><path d="M0-95 95 0 0 95-95 0Z" fill="#0b3d2e"/><path d="M0-47 47 0 0 47-47 0Z" fill="#d7a94c"/><circle r="18" fill="#fff8df"/></g>
</svg>
