<svg xmlns="http://www.w3.org/2000/svg" width="750" height="1050" viewBox="0 0 750 1050">
  <defs>
    <linearGradient id="edge" x1="0" y1="0" x2="1" y2="1"><stop stop-color="#ffe8a6"/><stop offset=".5" stop-color="#a27b38"/><stop offset="1" stop-color="#42240c"/></linearGradient>
    <linearGradient id="bg" x1="0" y1="0" x2="1" y2="1"><stop stop-color="#070611"/><stop offset=".52" stop-color="#34205f"/><stop offset="1" stop-color="#030208"/></linearGradient>
    <radialGradient id="glow" cx="50%" cy="45%" r="62%"><stop stop-color="#9f7aff" stop-opacity=".28"/><stop offset=".55" stop-color="#2b1b50" stop-opacity=".18"/><stop offset="1" stop-color="#000" stop-opacity=".5"/></radialGradient>
    <pattern id="dots" width="42" height="42" patternUnits="userSpaceOnUse"><path d="M21 6 36 21 21 36 6 21Z" fill="none" stroke="#d7a94c" stroke-width="1.3" opacity=".08"/><circle cx="21" cy="21" r="2" fill="#fff1b8" opacity=".06"/></pattern>
    <g id="corner"><path d="M0 0h140M0 0v140" fill="none" stroke="#d7a94c" stroke-width="6" stroke-linecap="round"/><path d="M26 26h88M26 26v88" fill="none" stroke="#fff1b8" stroke-width="2.5" stroke-linecap="round"/><circle cx="26" cy="26" r="7" fill="#fff1b8"/></g>
  </defs>
  <rect width="750" height="1050" rx="58" fill="#04030a"/><rect x="18" y="18" width="714" height="1014" rx="52" fill="url(#edge)"/><rect x="32" y="32" width="686" height="986" rx="44" fill="#04030a"/><rect x="50" y="50" width="650" height="950" rx="36" fill="url(#bg)"/><rect x="50" y="50" width="650" height="950" rx="36" fill="url(#dots)"/><rect x="50" y="50" width="650" height="950" rx="36" fill="url(#glow)"/>
  <rect x="82" y="82" width="586" height="886" rx="27" fill="none" stroke="#d7a94c" stroke-width="7"/><rect x="106" y="106" width="538" height="838" rx="20" fill="none" stroke="#fff1b8" stroke-opacity=".75" stroke-width="2.5"/><rect x="132" y="132" width="486" height="786" rx="17" fill="none" stroke="#d7a94c" stroke-opacity=".34" stroke-width="2" stroke-dasharray="15 14"/>
  <use href="#corner" x="110" y="110"/><use href="#corner" x="640" y="110" transform="rotate(90 640 110)"/><use href="#corner" x="640" y="940" transform="rotate(180 640 940)"/><use href="#corner" x="110" y="940" transform="rotate(270 110 940)"/>
  <g transform="translate(375 525)"><circle r="190" fill="#05030b" opacity=".34"/><circle r="176" fill="none" stroke="#d7a94c" stroke-width="5"/><path d="M0-178 55-55 178 0 55 55 0 178-55 55-178 0-55-55Z" fill="#100b22" stroke="#d7a94c" stroke-width="7"/><circle r="105" fill="none" stroke="#fff1b8" stroke-width="3" opacity=".55"/><path d="M0-82 82 0 0 82-82 0Z" fill="#34205f" stroke="#d7a94c" stroke-width="4"/><path d="M0-34 34 0 0 34-34 0Z" fill="#fff1b8"/></g>
</svg>
